<svg id="Layer_1" data-name="Layer 1" xmlns="http://www.w3.org/2000/svg" viewBox="0 0 50.97 50.96"><defs><style>.cls-1{fill:#334795;}</style></defs><path class="cls-1" d="M50.65,44.14l-6.51,6.5a1.18,1.18,0,0,1-1.67,0l-17-17-17,17a1.22,1.22,0,0,1-1.61,0L.34,44.14a1.16,1.16,0,0,1,0-1.61l17-17-17-17a1.1,1.1,0,0,1,0-1.61L6.85.34a1.13,1.13,0,0,1,1.61,0l17,17,17-17a1.13,1.13,0,0,1,1.61,0,1.12,1.12,0,0,1,0,1.62L40.06,6,45,10.93,49,6.85a1.11,1.11,0,0,1,1.61,0,1.16,1.16,0,0,1,0,1.61l-17,17,17,17A1.18,1.18,0,0,1,50.65,44.14Zm-2.48-.86-17-17a1.11,1.11,0,0,1,0-1.61l5.7-5.7L32,14.1l-5.7,5.7a1.11,1.11,0,0,1-1.61,0l-17-17L2.76,7.65l17,17a1.11,1.11,0,0,1,0,1.61l-17,17,4.89,4.89,17-17a1.11,1.11,0,0,1,1.61,0l17,17ZM38.44,7.65l-4.83,4.84,4.89,4.89,4.84-4.83Z"/></svg>