<svg id="Layer_1" data-name="Layer 1" xmlns="http://www.w3.org/2000/svg" viewBox="0 0 61.94 36.71"><defs><style>.cls-1{fill:#334795;}</style></defs><path class="cls-1" d="M55,2.28V9.2h5.7a1.14,1.14,0,1,1,0,2.28H1.14A1.11,1.11,0,0,1,0,10.34V1.14A1.11,1.11,0,0,1,1.14,0H60.72a1.18,1.18,0,0,1,1.22,1.14,1.18,1.18,0,0,1-1.22,1.14Zm6.92,24.09v9.2a1.18,1.18,0,0,1-1.22,1.14H1.14a1.14,1.14,0,0,1,0-2.28H6.92V27.51H1.14a1.14,1.14,0,0,1,0-2.28H60.72A1.18,1.18,0,0,1,61.94,26.37ZM2.28,9.2H43.54V2.28H2.28ZM9.2,34.43H16V27.51H9.2Zm50.38-6.92H18.31v6.92H59.58ZM52.74,2.28H45.82V9.2h6.92Z"/></svg>