<svg xmlns="http://www.w3.org/2000/svg" xmlns:xlink="http://www.w3.org/1999/xlink" width="441.211" height="357.342" viewBox="0 0 441.211 357.342">
  <defs>
    <linearGradient id="linear-gradient" x1="0.143" y1="0.321" x2="0.5" y2="1" gradientUnits="objectBoundingBox">
      <stop offset="0" stop-color="#a1195f"/>
      <stop offset="1" stop-color="#334697"/>
    </linearGradient>
  </defs>
  <g id="Group_42" data-name="Group 42" transform="translate(-225.68 -2231.722)" opacity="0.902">
    <rect id="Rectangle_19" data-name="Rectangle 19" width="219.406" height="285.055" rx="33" transform="translate(225.68 2344.725) rotate(-31)" fill="url(#linear-gradient)"/>
    <rect id="Rectangle_25" data-name="Rectangle 25" width="187.241" height="20.815" rx="10.407" transform="translate(249.968 2352.089) rotate(-31)" fill="#fff"/>
    <line id="Line_12" data-name="Line 12" x2="177.08" transform="translate(296.39 2421.315) rotate(-31)" fill="none" stroke="#fff" stroke-linecap="round" stroke-width="10.5" stroke-dasharray="19"/>
    <line id="Line_13" data-name="Line 13" x2="177.08" transform="translate(288.495 2406.343) rotate(-31)" fill="none" stroke="#fff" stroke-linecap="round" stroke-width="10.5" stroke-dasharray="29"/>
    <line id="Line_14" data-name="Line 14" x2="177.08" transform="translate(273.655 2381.645) rotate(-31)" fill="none" stroke="#fff" stroke-linecap="round" stroke-width="10.5"/>
    <line id="Line_15" data-name="Line 15" x2="177.08" transform="translate(320.338 2460.256) rotate(-31)" fill="none" stroke="#fff" stroke-linecap="round" stroke-width="10.5" stroke-dasharray="22"/>
    <line id="Line_16" data-name="Line 16" x2="177.08" transform="translate(312.443 2445.283) rotate(-31)" fill="none" stroke="#fff" stroke-linecap="round" stroke-width="10.5" stroke-dasharray="19"/>
    <line id="Line_17" data-name="Line 17" x2="177.08" transform="translate(338.151 2488.985) rotate(-31)" fill="none" stroke="#fff" stroke-linecap="round" stroke-width="10.5" stroke-dasharray="41"/>
    <line id="Line_18" data-name="Line 18" x2="177.08" transform="translate(330.256 2474.013) rotate(-31)" fill="none" stroke="#fff" stroke-linecap="round" stroke-width="10.5"/>
    <line id="Line_19" data-name="Line 19" x2="177.08" transform="translate(368.781 2543.627) rotate(-31)" fill="none" stroke="#fff" stroke-linecap="round" stroke-width="10.5" stroke-dasharray="19"/>
    <line id="Line_20" data-name="Line 20" x2="177.08" transform="translate(360.886 2528.655) rotate(-31)" fill="none" stroke="#fff" stroke-linecap="round" stroke-width="10.5" stroke-dasharray="29"/>
    <line id="Line_21" data-name="Line 21" x2="177.08" transform="translate(346.046 2503.957) rotate(-31)" fill="none" stroke="#fff" stroke-linecap="round" stroke-width="10.5"/>
    <rect id="Rectangle_24" data-name="Rectangle 24" width="219.406" height="285.055" rx="33" transform="translate(452.279 2255.788) rotate(12)" fill="url(#linear-gradient)"/>
    <rect id="Rectangle_25-2" data-name="Rectangle 25" width="187.241" height="5.209" rx="2.604" transform="matrix(0.978, 0.208, -0.208, 0.978, 461.493, 2294.296)" fill="#fff"/>
    <line id="Line_14-2" data-name="Line 14" x2="177.08" transform="matrix(0.978, 0.208, -0.208, 0.978, 461.903, 2316.801)" fill="none" stroke="#fff" stroke-linecap="round" stroke-width="10.5"/>
    <line id="Line_15-2" data-name="Line 15" x2="177.08" transform="matrix(0.978, 0.208, -0.208, 0.978, 453.08, 2354.655)" fill="none" stroke="#fff" stroke-linecap="round" stroke-width="10.5" stroke-dasharray="22"/>
    <line id="Line_16-2" data-name="Line 16" x2="177.08" transform="matrix(0.978, 0.208, -0.208, 0.978, 457.517, 2338.32)" fill="none" stroke="#fff" stroke-linecap="round" stroke-width="10.5" stroke-dasharray="18"/>
    <line id="Line_17-2" data-name="Line 17" x2="177.08" transform="matrix(0.978, 0.208, -0.208, 0.978, 446.515, 2387.814)" fill="none" stroke="#fff" stroke-linecap="round" stroke-width="10.5" stroke-dasharray="41"/>
    <line id="Line_18-2" data-name="Line 18" x2="177.08" transform="matrix(0.978, 0.208, -0.208, 0.978, 450.952, 2371.48)" fill="none" stroke="#fff" stroke-linecap="round" stroke-width="10.5"/>
    <line id="Line_19-2" data-name="Line 19" x2="177.08" transform="matrix(0.978, 0.208, -0.208, 0.978, 427.049, 2480.276)" fill="none" stroke="#fff" stroke-linecap="round" stroke-width="10.5" stroke-dasharray="19"/>
    <line id="Line_20-2" data-name="Line 20" x2="177.08" transform="matrix(0.978, 0.208, -0.208, 0.978, 436.087, 2432.332)" fill="none" stroke="#fff" stroke-linecap="round" stroke-width="10.5" stroke-dasharray="29"/>
    <line id="Line_21-2" data-name="Line 21" x2="177.08" transform="matrix(0.978, 0.208, -0.208, 0.978, 442.077, 2404.149)" fill="none" stroke="#fff" stroke-linecap="round" stroke-width="10.5" stroke-dasharray="15"/>
    <line id="Line_22" data-name="Line 22" x2="177.08" transform="matrix(0.978, 0.208, -0.208, 0.978, 421.484, 2499.548)" fill="none" stroke="#fff" stroke-linecap="round" stroke-width="10.5"/>
    <rect id="Rectangle_26" data-name="Rectangle 26" width="187.241" height="5.209" rx="2.604" transform="matrix(0.978, 0.208, -0.208, 0.978, 464.737, 2279.557)" fill="#fff"/>
  </g>
</svg>
