<svg id="Layer_1" data-name="Layer 1" xmlns="http://www.w3.org/2000/svg" viewBox="0 0 61.94 61.94"><defs><style>.cls-1{fill:#4787b9;}</style></defs><path class="cls-1" d="M61.94,26.37v9.2a1.18,1.18,0,0,1-1.22,1.14h-24V60.8a1.23,1.23,0,0,1-1.14,1.14h-9.2a1.17,1.17,0,0,1-1.14-1.14V36.71H1.14A1.11,1.11,0,0,1,0,35.57v-9.2a1.11,1.11,0,0,1,1.14-1.14H25.23V1.14a1.14,1.14,0,0,1,2.28,0V6.92h6.92V1.14A1.11,1.11,0,0,1,35.57,0a1.17,1.17,0,0,1,1.14,1.14V25.23h24A1.18,1.18,0,0,1,61.94,26.37Zm-2.36,1.14h-24a1.11,1.11,0,0,1-1.14-1.14V18.31H27.51v8.06a1.11,1.11,0,0,1-1.14,1.14H2.28v6.92H26.37a1.11,1.11,0,0,1,1.14,1.14v24h6.92v-24a1.11,1.11,0,0,1,1.14-1.14h24ZM27.51,9.2V16h6.92V9.2Z"/></svg>