<svg xmlns="http://www.w3.org/2000/svg" width="314.634" height="432.176" viewBox="0 0 314.634 432.176">
  <g id="Group_43" data-name="Group 43" transform="translate(-168.587 -201.771)">
    <path id="Path_15" data-name="Path 15" d="M189.276,115.118c3.938-3.945,8.09-8.862,4.153-12.807L178.3,87.148a10.068,10.068,0,0,0-12.8-1.212L133.686,107.6l21.492-32.1a10.119,10.119,0,0,0-1.243-12.774L121.113,29.842a10.064,10.064,0,0,0-11.5-1.959l-5.675,2.738,2.718-6.042a10.119,10.119,0,0,0-2.062-11.3L94.287,2.959a10.068,10.068,0,0,0-14.259,0L0,83.155s8.761,9.2,23.349,22.5S69.056,80.776,69.056,80.776s-9.29,37.154-20.726,48.205,73.1-44.917,73.1-44.917S60.91,141.943,78.672,160.736s32.7,33.278,32.7,33.278Z" transform="matrix(0.921, -0.391, 0.391, 0.921, 225.68, 327.497)" fill="none" stroke="#fff" stroke-linejoin="round" stroke-width="3.5"/>
    <path id="Path_16" data-name="Path 16" d="M87,0,64.035,22.967a9.994,9.994,0,0,0,0,14.135L85.822,58.889a19.475,19.475,0,0,1-3.321,30.2C18.483,129.9,12.515,135.866,10.555,137.827A36.094,36.094,0,0,0,61.6,188.872c1.962-1.961,7.931-7.931,48.736-71.945a19.5,19.5,0,0,1,30.2-3.322l21.787,21.787a10,10,0,0,0,14.136,0l22.968-22.968ZM46.68,172.727a14.128,14.128,0,1,1,0-19.98A14.127,14.127,0,0,1,46.68,172.727Z" transform="matrix(0.921, -0.391, 0.391, 0.921, 170.881, 448.079)" fill="none" stroke="#fff" stroke-linejoin="round" stroke-width="3.5"/>
    <path id="Path_21" data-name="Path 21" d="M0,6.706s15.932-15.088,36.6,0" transform="translate(226.147 267.038) rotate(4)" fill="none" stroke="#fff" stroke-linecap="round" stroke-width="3.5" stroke-dasharray="9"/>
    <path id="Path_20" data-name="Path 20" d="M0,6.706s18.318-15.088,42.08,0" transform="matrix(0.743, -0.669, 0.669, 0.743, 314.071, 236.972)" fill="none" stroke="#fff" stroke-linecap="round" stroke-width="3.5" stroke-dasharray="9"/>
    <path id="Path_22" data-name="Path 22" d="M0,6.706s24.041-15.088,55.228,0" transform="translate(279.616 259.336) rotate(-90)" fill="none" stroke="#fff" stroke-linecap="round" stroke-width="3.5" stroke-dasharray="9"/>
  </g>
</svg>
