<svg xmlns="http://www.w3.org/2000/svg" xmlns:xlink="http://www.w3.org/1999/xlink" width="243.227" height="342.458" viewBox="0 0 243.227 342.458">
  <defs>
    <linearGradient id="linear-gradient" x1="0.5" x2="0.868" y2="0.856" gradientUnits="objectBoundingBox">
      <stop offset="0" stop-color="#a1195f"/>
      <stop offset="1" stop-color="#334697"/>
    </linearGradient>
    <linearGradient id="linear-gradient-2" x2="4.833" y2="1.019" xlink:href="#linear-gradient"/>
  </defs>
  <g id="Group_44" data-name="Group 44" transform="translate(-1318.002 -1460.107)">
    <path id="Subtraction_1" data-name="Subtraction 1" d="M147.5-941.922l-84.468-.023a113.415,113.415,0,0,1-22.394-17.989,123.361,123.361,0,0,1-16.37-21.3,159.821,159.821,0,0,1-18.412-45.488,204.26,204.26,0,0,1-3.916-20.671c-.773-5.633-1.324-11.333-1.637-16.943A153.026,153.026,0,0,1,.114-1080H209.439l0,.011a46.169,46.169,0,0,1,.728,5.708,48.881,48.881,0,0,1-.731,12.881,14,14,0,0,1-1.764,4.767c1.076-.881,3.725-2.67,9.365-4.767a11.129,11.129,0,0,1,3.63-.509,22.31,22.31,0,0,1,17.446,8.656,26.4,26.4,0,0,1,4.911,13.459c.639,6.244-.237,13.639-2.6,21.979a54.981,54.981,0,0,1-13.847,24.132,58.7,58.7,0,0,1-18.968,12.576,74.284,74.284,0,0,1-16.757,4.785,55.923,55.923,0,0,1-7.215.758,72.7,72.7,0,0,1-7.978,10.7,117.715,117.715,0,0,1-10.783,10.792,137.2,137.2,0,0,1-16.032,12.129ZM29.372-1070.416l-16.979.3c-.007.008-.738,1.1.421,24.109.955,5.055,1.6,8.828,2.118,11.861,1.228,7.182,1.737,10.155,3.911,16.093a128.8,128.8,0,0,0,12.308,24.664A96.581,96.581,0,0,0,45.51-975.474,84.114,84.114,0,0,0,63.825-965a84.358,84.358,0,0,0,8.984,3.29l-.028-.027c-1.6-1.671-15.855-16.641-22.886-27.484A122.717,122.717,0,0,1,38.6-1011.3a157.262,157.262,0,0,1-6.386-22.809,159.192,159.192,0,0,1-2.624-18.811,114.751,114.751,0,0,1-.221-17.491Zm163.06,75.82h.073a32.9,32.9,0,0,0,9.518-1.734,41.707,41.707,0,0,0,8.577-3.895,44.741,44.741,0,0,0,9.308-7.448,37.039,37.039,0,0,0,8.863-16.09,35.493,35.493,0,0,0,.921-15,14.48,14.48,0,0,0-1.35-4.149,4.916,4.916,0,0,0-2.105-2.253,15.5,15.5,0,0,0-6.527-1.505,11.818,11.818,0,0,0-6.4,1.793,14.432,14.432,0,0,0-5.255,6.3,161.819,161.819,0,0,0-7.184,19.279c-3.184,11.193-8.388,24.57-8.44,24.7Z" transform="translate(1318 2744.487)" opacity="0.896" fill="url(#linear-gradient)"/>
    <g id="Group_41" data-name="Group 41" opacity="0.896">
      <path id="Path_70" data-name="Path 70" d="M15.935,0S-.887,24.61.037,45.144s21.472,41.5,22.107,61.138,0,20.563,0,20.563,15.41-36.477,0-63.117C1.925,30.679,15.935,0,15.935,0Z" transform="matrix(1, -0.017, 0.017, 1, 1465.635, 1518.689)" fill="url(#linear-gradient-2)"/>
      <path id="Path_71" data-name="Path 71" d="M15.935,0S-.887,20.925.037,38.384,21.509,73.668,22.143,90.366s0,17.484,0,17.484,15.41-31.015,0-53.665C1.925,26.085,15.935,0,15.935,0Z" transform="matrix(1, -0.017, 0.017, 1, 1341.32, 1539.857)" fill="url(#linear-gradient-2)"/>
      <path id="Path_72" data-name="Path 72" d="M15.935,0S-.887,36.088.037,66.2s21.472,60.853,22.107,89.653,0,30.153,0,30.153,19.508-49.276,0-92.555C1.925,44.987,15.935,0,15.935,0Z" transform="matrix(1, -0.017, 0.017, 1, 1401.177, 1460.645)" fill="url(#linear-gradient-2)"/>
    </g>
  </g>
</svg>
